<svg xmlns="http://www.w3.org/2000/svg" width="15" height="15"><path d="M15 5.943v6.646c0 .737-.603 1.339-1.339 1.339H1.34a1.343 1.343 0 01-1.339-1.339V5.943c.251.276.536.519.845.728 1.39.946 2.796 1.892 4.16 2.888.703.519 1.574 1.155 2.486 1.155h.017c.912 0 1.783-.636 2.486-1.155a159.117 159.117 0 014.169-2.888c.301-.209.586-.452.837-.728zm0-2.461c0 .938-.695 1.783-1.431 2.294-1.306.904-2.62 1.808-3.917 2.72-.544.377-1.465 1.147-2.143 1.147h-.017c-.678 0-1.599-.77-2.143-1.147-1.297-.912-2.612-1.816-3.909-2.72C.846 5.374 0 4.428 0 3.667c0-.82.444-1.523 1.339-1.523H13.66c.728 0 1.339.603 1.339 1.339z"/></svg>