<svg xmlns="http://www.w3.org/2000/svg" width="12" height="15"><path d="M11.786 10.379c0 .301-.134.887-.259 1.164-.176.41-.645.678-1.021.887-.494.268-.996.427-1.557.427-.778 0-1.482-.318-2.193-.578a7.799 7.799 0 01-1.465-.695c-1.423-.879-3.139-2.595-4.018-4.018a7.77 7.77 0 01-.695-1.465C.319 5.39 0 4.686 0 3.908c0-.561.159-1.063.427-1.557.209-.377.477-.845.887-1.021.276-.126.862-.259 1.164-.259.059 0 .117 0 .176.025.176.059.36.469.444.636.268.477.527.963.804 1.431.134.218.385.485.385.745 0 .511-1.515 1.256-1.515 1.708 0 .226.209.519.326.72.845 1.523 1.9 2.578 3.424 3.424.201.117.494.326.72.326.452 0 1.197-1.515 1.708-1.515.259 0 .527.251.745.385.469.276.954.536 1.431.804.167.084.578.268.636.444.025.059.025.117.025.176z"/></svg>