<svg xmlns="http://www.w3.org/2000/svg" width="15" height="15"><path d="M6.234.548C6.211.533 6.184.522 6.161.51l-.076.015.149.023zM.539 6.167c-.006.026-.009.053-.012.076.015.023.023.047.038.07l-.026-.146zm13.916 2.66c.006-.026.009-.053.015-.079-.015-.023-.023-.047-.038-.07l.023.149zm-5.783 5.572c.023.015.05.026.073.038.026-.006.053-.009.079-.012l-.152-.026z"/><path d="M14.47 8.748c-.006.026-.009.053-.015.079l-.026-.152c.015.026.026.05.041.073.076-.422.117-.853.117-1.283 0-.955-.188-1.884-.557-2.757A7.115 7.115 0 0010.262.937 7.049 7.049 0 007.505.38c-.451 0-.902.041-1.342.126H6.16c.023.012.05.023.073.038L6.084.521 6.16.506A4.218 4.218 0 004.194.014c-1.119 0-2.174.437-2.965 1.228S.001 3.088.001 4.207c0 .712.185 1.415.527 2.033.006-.026.009-.053.012-.076l.026.149C.551 6.29.54 6.266.528 6.243a7.124 7.124 0 00.452 3.979 7.094 7.094 0 003.771 3.768 7.049 7.049 0 003.996.446c-.023-.015-.047-.026-.073-.038l.152.026c-.026.006-.053.009-.079.012a4.204 4.204 0 002.063.545c1.119 0 2.174-.437 2.965-1.228s1.228-1.846 1.228-2.965a4.247 4.247 0 00-.533-2.039zm-6.938 3.056c-2.517 0-3.642-1.236-3.642-2.165 0-.475.352-.809.835-.809 1.078 0 .797 1.547 2.807 1.547 1.028 0 1.597-.56 1.597-1.131 0-.343-.17-.724-.847-.891l-2.238-.56c-1.802-.451-2.13-1.427-2.13-2.344 0-1.901 1.79-2.616 3.472-2.616 1.55 0 3.375.855 3.375 1.998 0 .489-.425.773-.908.773-.92 0-.75-1.271-2.602-1.271-.92 0-1.427.416-1.427 1.011s.727.785 1.356.929l1.658.369c1.813.404 2.273 1.465 2.273 2.461 0 1.544-1.187 2.698-3.58 2.698z"/></svg>