<svg xmlns="http://www.w3.org/2000/svg" width="15" height="15"><path d="M12.788 2.18A7.378 7.378 0 007.529 0C3.433 0 .099 3.334.099 7.433c0 1.31.343 2.59.993 3.715L.037 15.001l3.94-1.034a7.43 7.43 0 003.551.905h.003c4.096 0 7.433-3.334 7.433-7.433a7.394 7.394 0 00-2.177-5.259zM7.532 13.617a6.176 6.176 0 01-3.146-.861l-.226-.135-2.338.612.624-2.279-.146-.234a6.133 6.133 0 01-.946-3.287 6.186 6.186 0 016.182-6.179c1.649 0 3.202.645 4.368 1.811a6.146 6.146 0 011.808 4.371c-.003 3.41-2.774 6.182-6.179 6.182zm3.387-4.629c-.185-.094-1.099-.542-1.269-.604s-.293-.094-.419.094c-.123.185-.48.604-.589.729-.108.123-.217.141-.401.047s-.785-.29-1.494-.923c-.551-.492-.926-1.102-1.034-1.286s-.012-.287.082-.378c.085-.082.185-.217.278-.325s.123-.185.185-.311c.062-.123.032-.231-.015-.325s-.419-1.008-.571-1.38c-.149-.363-.305-.313-.419-.319-.108-.006-.231-.006-.354-.006s-.325.047-.495.231c-.17.185-.65.636-.65 1.55s.665 1.796.759 1.922c.094.123 1.31 2.001 3.173 2.804.442.19.788.305 1.058.393.445.141.85.12 1.169.073.357-.053 1.099-.448 1.254-.882s.155-.806.108-.882c-.044-.082-.167-.129-.354-.223z"/></svg>