<!-- Generated by IcoMoon.io -->
<svg version="1.1" xmlns="http://www.w3.org/2000/svg" width="15" height="15" viewBox="0 0 15 15">
<title>envelope</title>
<path d="M15 5.943v6.646c0 0.737-0.603 1.339-1.339 1.339h-12.321c-0.737 0-1.339-0.603-1.339-1.339v-6.646c0.251 0.276 0.536 0.519 0.845 0.728 1.39 0.946 2.796 1.892 4.16 2.888 0.703 0.519 1.574 1.155 2.486 1.155h0.017c0.912 0 1.783-0.636 2.486-1.155 1.364-0.988 2.771-1.942 4.169-2.888 0.301-0.209 0.586-0.452 0.837-0.728zM15 3.482c0 0.938-0.695 1.783-1.431 2.294-1.306 0.904-2.62 1.808-3.917 2.72-0.544 0.377-1.465 1.147-2.143 1.147h-0.017c-0.678 0-1.599-0.77-2.143-1.147-1.297-0.912-2.612-1.816-3.909-2.72-0.594-0.402-1.44-1.348-1.44-2.109 0-0.82 0.444-1.523 1.339-1.523h12.321c0.728 0 1.339 0.603 1.339 1.339z"></path>
</svg>
