<!-- Generated by IcoMoon.io -->
<svg version="1.1" xmlns="http://www.w3.org/2000/svg" width="12" height="15" viewBox="0 0 12 15">
<title>phone</title>
<path d="M11.786 10.379c0 0.301-0.134 0.887-0.259 1.164-0.176 0.41-0.645 0.678-1.021 0.887-0.494 0.268-0.996 0.427-1.557 0.427-0.778 0-1.482-0.318-2.193-0.578-0.511-0.184-1.004-0.41-1.465-0.695-1.423-0.879-3.139-2.595-4.018-4.018-0.285-0.46-0.511-0.954-0.695-1.465-0.259-0.711-0.578-1.415-0.578-2.193 0-0.561 0.159-1.063 0.427-1.557 0.209-0.377 0.477-0.845 0.887-1.021 0.276-0.126 0.862-0.259 1.164-0.259 0.059 0 0.117 0 0.176 0.025 0.176 0.059 0.36 0.469 0.444 0.636 0.268 0.477 0.527 0.963 0.804 1.431 0.134 0.218 0.385 0.485 0.385 0.745 0 0.511-1.515 1.256-1.515 1.708 0 0.226 0.209 0.519 0.326 0.72 0.845 1.523 1.9 2.578 3.424 3.424 0.201 0.117 0.494 0.326 0.72 0.326 0.452 0 1.197-1.515 1.708-1.515 0.259 0 0.527 0.251 0.745 0.385 0.469 0.276 0.954 0.536 1.431 0.804 0.167 0.084 0.578 0.268 0.636 0.444 0.025 0.059 0.025 0.117 0.025 0.176z"></path>
</svg>
