<!-- Generated by IcoMoon.io -->
<svg version="1.1" xmlns="http://www.w3.org/2000/svg" width="15" height="15" viewBox="0 0 15 15">
<title>skype</title>
<path d="M6.234 0.548c-0.023-0.015-0.050-0.026-0.073-0.038-0.026 0.006-0.050 0.009-0.076 0.015l0.149 0.023z"></path>
<path d="M0.539 6.167c-0.006 0.026-0.009 0.053-0.012 0.076 0.015 0.023 0.023 0.047 0.038 0.070l-0.026-0.146z"></path>
<path d="M14.455 8.827c0.006-0.026 0.009-0.053 0.015-0.079-0.015-0.023-0.023-0.047-0.038-0.070l0.023 0.149z"></path>
<path d="M8.672 14.399c0.023 0.015 0.050 0.026 0.073 0.038 0.026-0.006 0.053-0.009 0.079-0.012l-0.152-0.026z"></path>
<path d="M14.47 8.748c-0.006 0.026-0.009 0.053-0.015 0.079l-0.026-0.152c0.015 0.026 0.026 0.050 0.041 0.073 0.076-0.422 0.117-0.853 0.117-1.283 0-0.955-0.188-1.884-0.557-2.757-0.357-0.844-0.867-1.603-1.518-2.253s-1.409-1.16-2.25-1.518c-0.873-0.369-1.802-0.557-2.757-0.557-0.451 0-0.902 0.041-1.342 0.126 0 0-0.003 0-0.003 0 0.023 0.012 0.050 0.023 0.073 0.038l-0.149-0.023c0.026-0.006 0.050-0.009 0.076-0.015-0.604-0.319-1.28-0.492-1.966-0.492-1.119 0-2.174 0.437-2.965 1.228s-1.228 1.846-1.228 2.965c0 0.712 0.185 1.415 0.527 2.033 0.006-0.026 0.009-0.053 0.012-0.076l0.026 0.149c-0.015-0.023-0.026-0.047-0.038-0.070-0.070 0.401-0.105 0.812-0.105 1.222 0 0.955 0.188 1.884 0.557 2.757 0.357 0.844 0.867 1.6 1.518 2.25s1.409 1.16 2.253 1.518c0.873 0.369 1.802 0.557 2.757 0.557 0.416 0 0.832-0.038 1.239-0.111-0.023-0.015-0.047-0.026-0.073-0.038l0.152 0.026c-0.026 0.006-0.053 0.009-0.079 0.012 0.627 0.354 1.339 0.545 2.063 0.545 1.119 0 2.174-0.437 2.965-1.228s1.228-1.846 1.228-2.965c-0.003-0.712-0.187-1.415-0.533-2.039zM7.532 11.804c-2.517 0-3.642-1.236-3.642-2.165 0-0.475 0.352-0.809 0.835-0.809 1.078 0 0.797 1.547 2.807 1.547 1.028 0 1.597-0.56 1.597-1.131 0-0.343-0.17-0.724-0.847-0.891l-2.238-0.56c-1.802-0.451-2.13-1.427-2.13-2.344 0-1.901 1.79-2.616 3.472-2.616 1.55 0 3.375 0.855 3.375 1.998 0 0.489-0.425 0.773-0.908 0.773-0.92 0-0.75-1.271-2.602-1.271-0.92 0-1.427 0.416-1.427 1.011s0.727 0.785 1.356 0.929l1.658 0.369c1.813 0.404 2.273 1.465 2.273 2.461 0 1.544-1.187 2.698-3.58 2.698z"></path>
</svg>
