<!-- Generated by IcoMoon.io -->
<svg version="1.1" xmlns="http://www.w3.org/2000/svg" width="15" height="15" viewBox="0 0 15 15">
<title>telegram</title>
<path d="M7.5 0c-4.143 0-7.5 3.357-7.5 7.5s3.357 7.5 7.5 7.5 7.5-3.357 7.5-7.5-3.357-7.5-7.5-7.5zM11.186 5.142l-1.23 5.798c-0.085 0.413-0.334 0.51-0.68 0.319l-1.875-1.386-0.899 0.876c-0.105 0.103-0.188 0.187-0.375 0.187-0.243 0-0.202-0.091-0.284-0.322l-0.639-2.098-1.854-0.577c-0.401-0.123-0.404-0.398 0.091-0.595l7.225-2.789c0.328-0.149 0.647 0.079 0.521 0.586z"></path>
</svg>
