<!-- Generated by IcoMoon.io -->
<svg version="1.1" xmlns="http://www.w3.org/2000/svg" width="15" height="15" viewBox="0 0 15 15">
<title>whatsapp</title>
<path d="M12.788 2.18c-1.403-1.406-3.27-2.18-5.259-2.18-4.096 0-7.43 3.334-7.43 7.433 0 1.31 0.343 2.59 0.993 3.715l-1.055 3.853 3.94-1.034c1.087 0.592 2.309 0.905 3.551 0.905h0.003c0 0 0 0 0 0 4.096 0 7.433-3.334 7.433-7.433 0-1.986-0.773-3.853-2.177-5.259zM7.532 13.617v0c-1.11 0-2.197-0.299-3.146-0.861l-0.226-0.135-2.338 0.612 0.624-2.279-0.146-0.234c-0.621-0.981-0.946-2.118-0.946-3.287 0-3.407 2.771-6.179 6.182-6.179 1.649 0 3.202 0.645 4.368 1.811 1.166 1.169 1.808 2.719 1.808 4.371-0.003 3.41-2.774 6.182-6.179 6.182zM10.919 8.988c-0.185-0.094-1.099-0.542-1.269-0.604s-0.293-0.094-0.419 0.094c-0.123 0.185-0.48 0.604-0.589 0.729-0.108 0.123-0.217 0.141-0.401 0.047s-0.785-0.29-1.494-0.923c-0.551-0.492-0.926-1.102-1.034-1.286s-0.012-0.287 0.082-0.378c0.085-0.082 0.185-0.217 0.278-0.325s0.123-0.185 0.185-0.311c0.062-0.123 0.032-0.231-0.015-0.325s-0.419-1.008-0.571-1.38c-0.149-0.363-0.305-0.313-0.419-0.319-0.108-0.006-0.231-0.006-0.354-0.006s-0.325 0.047-0.495 0.231c-0.17 0.185-0.65 0.636-0.65 1.55s0.665 1.796 0.759 1.922c0.094 0.123 1.31 2.001 3.173 2.804 0.442 0.19 0.788 0.305 1.058 0.393 0.445 0.141 0.85 0.12 1.169 0.073 0.357-0.053 1.099-0.448 1.254-0.882s0.155-0.806 0.108-0.882c-0.044-0.082-0.167-0.129-0.354-0.223z"></path>
</svg>
